<?xml version="1.0" encoding="utf-8"?>
<svg viewBox="0 0 1440 576" width="1440" height="576" xmlns="http://www.w3.org/2000/svg">
  <defs>
    <linearGradient id="gradient-text" x1="0%" y1="0%" x2="0%" y2="100%">
      <stop offset="0" stop-color="rgba(256,256,256,.8)"/>
      <stop offset="1" stop-color="#fff"/>
    </linearGradient>
    <linearGradient id="gradient-develop" x1="0%" y1="0%" x2="100%" y2="0%">
      <stop offset="0" style="stop-color: #7928ca; stop-opacity: 1"/>
      <stop offset="1" style="stop-color: #ff0080; stop-opacity: 1"/>
    </linearGradient>
    <filter id='shadow' color-interpolation-filters="sRGB">
      <feDropShadow dx="2" dy="2" stdDeviation="3" flood-opacity="0.5"/>
    </filter>
  </defs>
  <rect width="1440" height="576" style="fill: url('#gradient-develop'); paint-order: fill;" transform="matrix(1, 0, 0, 1, -1.1368683772161603e-13, 0)"/>
  <path fill="url(#gradient-text)" filter="url('#shadow')" d="M 195.922 375.809 C 182.682 375.809 171.085 372.891 161.152 367.045 C 151.214 361.203 143.478 352.284 137.924 340.304 C 132.371 328.322 129.592 313.177 129.592 294.868 C 129.592 276.358 132.222 261.164 137.483 249.284 C 142.742 237.395 150.338 228.533 160.273 222.691 C 170.21 216.844 182.1 213.921 195.922 213.921 C 210.735 213.921 224.025 217.283 235.814 224.004 C 247.603 230.72 256.955 240.125 263.868 252.202 C 270.782 264.276 274.239 278.501 274.239 294.868 C 274.239 311.427 270.782 325.744 263.868 337.822 C 256.955 349.895 247.603 359.247 235.814 365.877 C 224.025 372.498 210.735 375.809 195.922 375.809 Z M 103 430.163 L 103 216.264 L 146.54 216.264 L 146.54 248.404 L 145.665 295.161 L 148.584 341.621 L 148.584 430.163 L 103 430.163 Z M 188.033 338.408 C 195.635 338.408 202.404 336.653 208.347 333.148 C 214.294 329.643 219.059 324.625 222.664 318.096 C 226.274 311.567 228.069 303.825 228.069 294.868 C 228.069 285.709 226.274 277.921 222.664 271.491 C 219.059 265.064 214.294 260.093 208.347 256.587 C 202.404 253.082 195.635 251.327 188.033 251.327 C 180.437 251.327 173.623 253.082 167.58 256.587 C 161.541 260.093 156.768 265.064 153.261 271.491 C 149.752 277.921 148.002 285.709 148.002 294.868 C 148.002 303.825 149.752 311.567 153.261 318.096 C 156.768 324.625 161.541 329.643 167.58 333.148 C 173.623 336.653 180.437 338.408 188.033 338.408 Z" transform="matrix(1, 0, 0, 1, -1.1368683772161603e-13, 0)"/>
  <path fill="url(#gradient-text)" filter="url('#shadow')" d="M 283.192 373.473 L 283.192 216.264 L 326.728 216.264 L 326.728 260.679 L 320.594 247.822 C 325.271 236.716 332.776 228.284 343.095 222.542 C 353.422 216.796 365.99 213.921 380.789 213.921 L 380.789 256.006 C 378.846 255.805 377.091 255.659 375.528 255.564 C 373.975 255.462 372.316 255.418 370.562 255.418 C 358.099 255.418 348.013 258.967 340.316 266.083 C 332.624 273.194 328.776 284.247 328.776 299.253 L 328.776 373.473 L 283.192 373.473 Z" transform="matrix(1, 0, 0, 1, -1.1368683772161603e-13, 0)"/>
  <path fill="url(#gradient-text)" filter="url('#shadow')" d="M 459.945 375.809 C 443.198 375.809 428.341 372.304 415.384 365.29 C 402.427 358.279 392.201 348.679 384.705 336.505 C 377.205 324.332 373.451 310.446 373.451 294.868 C 373.451 279.089 377.205 265.103 384.705 252.934 C 392.201 240.76 402.427 231.207 415.384 224.293 C 428.341 217.379 443.198 213.921 459.945 213.921 C 476.509 213.921 491.312 217.379 504.361 224.293 C 517.419 231.207 527.645 240.707 535.045 252.789 C 542.448 264.862 546.151 278.888 546.151 294.868 C 546.151 310.446 542.448 324.332 535.045 336.505 C 527.645 348.679 517.419 358.279 504.361 365.29 C 491.312 372.304 476.509 375.809 459.945 375.809 Z M 459.945 338.408 C 467.541 338.408 474.364 336.653 480.402 333.148 C 486.445 329.643 491.211 324.625 494.721 318.096 C 498.226 311.567 499.981 303.825 499.981 294.868 C 499.981 285.709 498.226 277.921 494.721 271.491 C 491.211 265.064 486.445 260.093 480.402 256.587 C 474.364 253.082 467.541 251.327 459.945 251.327 C 452.349 251.327 445.535 253.082 439.492 256.587 C 433.453 260.093 428.636 265.064 425.03 271.491 C 421.423 277.921 419.621 285.709 419.621 294.868 C 419.621 303.825 421.423 311.567 425.03 318.096 C 428.636 324.625 433.453 329.643 439.492 333.148 C 445.535 336.653 452.349 338.408 459.945 338.408 Z" transform="matrix(1, 0, 0, 1, -1.1368683772161603e-13, 0)"/>
  <path fill="url(#gradient-text)" filter="url('#shadow')" d="M 543.447 432.5 C 536.437 432.5 529.715 431.769 523.287 430.307 C 516.853 428.846 511.406 426.658 506.921 423.735 L 519.196 390.714 C 524.455 394.412 530.883 396.267 538.481 396.267 C 544.133 396.267 548.667 394.364 552.072 390.565 C 555.481 386.767 557.183 381.069 557.183 373.473 L 557.183 216.264 L 602.767 216.264 L 602.767 373.18 C 602.767 391.3 597.608 405.711 587.28 416.431 C 576.961 427.143 562.351 432.5 543.447 432.5 Z M 579.977 194.343 C 571.602 194.343 564.78 191.907 559.52 187.04 C 554.259 182.166 551.629 176.127 551.629 168.924 C 551.629 161.708 554.259 155.674 559.52 150.803 C 564.78 145.928 571.602 143.5 579.977 143.5 C 588.357 143.5 595.17 145.789 600.431 150.362 C 605.69 154.938 608.32 160.833 608.32 168.044 C 608.32 175.646 605.738 181.921 600.579 186.891 C 595.42 191.859 588.55 194.343 579.977 194.343 Z" transform="matrix(1, 0, 0, 1, -1.1368683772161603e-13, 0)"/>
  <path fill="url(#gradient-text)" filter="url('#shadow')" d="M 701.479 375.809 C 683.564 375.809 667.833 372.304 654.289 365.29 C 640.75 358.279 630.278 348.679 622.874 336.505 C 615.475 324.332 611.769 310.446 611.769 294.868 C 611.769 279.089 615.427 265.103 622.73 252.934 C 630.037 240.76 640.024 231.207 652.679 224.293 C 665.343 217.379 679.666 213.921 695.638 213.921 C 711.031 213.921 724.907 217.181 737.278 223.711 C 749.655 230.24 759.438 239.592 766.645 251.76 C 773.857 263.935 777.455 278.501 777.455 295.454 C 777.455 297.204 777.363 299.2 777.166 301.441 C 776.973 303.677 776.781 305.773 776.58 307.725 L 648.88 307.725 L 648.88 281.132 L 752.616 281.132 L 735.087 289.022 C 735.087 280.843 733.432 273.728 730.115 267.693 C 726.811 261.646 722.226 256.924 716.384 253.516 C 710.537 250.111 703.724 248.404 695.927 248.404 C 688.137 248.404 681.275 250.111 675.328 253.516 C 669.387 256.924 664.761 261.698 661.448 267.833 C 658.14 273.973 656.477 281.228 656.477 289.608 L 656.477 296.622 C 656.477 305.187 658.381 312.735 662.179 319.264 C 665.977 325.793 671.338 330.76 678.252 334.169 C 685.165 337.572 693.297 339.283 702.648 339.283 C 711.031 339.283 718.384 338.015 724.716 335.485 C 731.044 332.947 736.837 329.149 742.097 324.091 L 766.352 350.39 C 759.145 358.574 750.087 364.848 739.174 369.232 C 728.273 373.618 715.706 375.809 701.479 375.809 Z" transform="matrix(1, 0, 0, 1, -1.1368683772161603e-13, 0)"/>
  <path fill="url(#gradient-text)" filter="url('#shadow')" d="M 862.418 375.809 C 845.47 375.809 830.377 372.348 817.127 365.434 C 803.885 358.52 793.506 348.928 786 336.653 C 778.504 324.384 774.754 310.446 774.754 294.868 C 774.754 279.089 778.504 265.103 786 252.934 C 793.506 240.76 803.885 231.207 817.127 224.293 C 830.377 217.379 845.47 213.921 862.418 213.921 C 878.984 213.921 893.394 217.379 905.669 224.293 C 917.939 231.207 926.998 241.101 932.844 253.957 L 897.486 272.953 C 893.394 265.544 888.284 260.093 882.14 256.587 C 876.009 253.082 869.34 251.327 862.129 251.327 C 854.34 251.327 847.324 253.082 841.09 256.587 C 834.858 260.093 829.935 265.064 826.329 271.491 C 822.728 277.921 820.925 285.709 820.925 294.868 C 820.925 304.018 822.728 311.816 826.329 318.244 C 829.935 324.673 834.858 329.643 841.09 333.148 C 847.324 336.653 854.34 338.408 862.129 338.408 C 869.34 338.408 876.009 336.697 882.14 333.288 C 888.284 329.884 893.394 324.384 897.486 316.782 L 932.844 336.071 C 926.998 348.727 917.939 358.52 905.669 365.434 C 893.394 372.348 878.984 375.809 862.418 375.809 Z" transform="matrix(1, 0, 0, 1, -1.1368683772161603e-13, 0)"/>
  <path fill="url(#gradient-text)" filter="url('#shadow')" d="M 1004.359 375.809 C 985.854 375.809 971.44 371.088 961.112 361.636 C 950.789 352.184 945.621 338.115 945.621 319.412 L 945.621 181.488 L 991.211 181.488 L 991.211 318.831 C 991.211 325.451 992.961 330.562 996.47 334.169 C 999.975 337.774 1004.75 339.578 1010.787 339.578 C 1018 339.578 1024.135 337.626 1029.197 333.73 L 1041.468 365.877 C 1036.795 369.184 1031.193 371.67 1024.663 373.323 C 1018.144 374.978 1011.369 375.809 1004.359 375.809 Z M 921.37 254.832 L 921.37 219.769 L 1030.365 219.769 L 1030.365 254.832 L 921.37 254.832 Z" transform="matrix(1, 0, 0, 1, -1.1368683772161603e-13, 0)"/>
  <ellipse fill="url(#gradient-text)" filter="url('#shadow')" cx="1098.302" cy="268.175" rx="35.637" ry="35.637" transform="matrix(1, 0, 0, 1, -1.1368683772161603e-13, 0)"/>
  <path fill="url(#gradient-text)" filter="url('#shadow')" d="M 1266.592 375.809 C 1249.64 375.809 1234.547 372.348 1221.297 365.434 C 1208.055 358.52 1197.676 348.928 1190.18 336.653 C 1182.679 324.384 1178.925 310.446 1178.925 294.868 C 1178.925 279.089 1182.679 265.103 1190.18 252.934 C 1197.676 240.76 1208.055 231.207 1221.297 224.293 C 1234.547 217.379 1249.64 213.921 1266.592 213.921 C 1283.155 213.921 1297.564 217.379 1309.839 224.293 C 1322.11 231.207 1331.168 241.101 1337.014 253.957 L 1301.657 272.953 C 1297.564 265.544 1292.454 260.093 1286.319 256.587 C 1280.183 253.082 1273.51 251.327 1266.299 251.327 C 1258.51 251.327 1251.496 253.082 1245.259 256.587 C 1239.027 260.093 1234.109 265.064 1230.504 271.491 C 1226.898 277.921 1225.095 285.709 1225.095 294.868 C 1225.095 304.018 1226.898 311.816 1230.504 318.244 C 1234.109 324.673 1239.027 329.643 1245.259 333.148 C 1251.496 336.653 1258.51 338.408 1266.299 338.408 C 1273.51 338.408 1280.183 336.697 1286.319 333.288 C 1292.454 329.884 1297.564 324.384 1301.657 316.782 L 1337.014 336.071 C 1331.168 348.727 1322.11 358.52 1309.839 365.434 C 1297.564 372.348 1283.155 375.809 1266.592 375.809 Z" transform="matrix(1, 0, 0, 1, -1.1368683772161603e-13, 0)"/>
</svg>